<svg width="959pt" height="720" viewBox="0 0 959 540" xmlns="http://www.w3.org/2000/svg"><path d="M634.11 51.56c11.79-2.63 23.96-2.69 35.97-2.28 19.75 1.33 39.38 6.38 56.86 15.81 15.27 8.3 28.72 19.78 39.82 33.13 48.84 60.43 97.67 120.87 146.51 181.3 7.19 9.18 14.97 17.91 21.67 27.46 11.6 16.67 19.55 35.96 22.43 56.1 1.76 9.88.49 19.92.97 29.88-1.4 19.35-6.43 38.57-15.62 55.71-14.04 26.06-37.05 46.78-63.65 59.51-30.05 14.48-65.44 15.7-97.21 6.43-18.85-5.46-36.37-15.37-50.79-28.67-10.22-9.19-18.36-20.34-27.04-30.92-32.31-40.05-64.66-80.06-96.94-120.13-34.98-47.7-69.88-95.46-104.83-143.18-8.91-12.45-18.61-24.3-27.93-36.45 6.24 2.69 14.18 4.44 20.29.69 27.11-29.7 56.41-57.51 88.49-81.8 15.07-11.15 32.56-19.09 51-22.59m-375.13 2.81c20.38-6.07 42.02-5.77 62.96-3.3 17.22.69 33.33 8.24 47.63 17.39 23.98 15.76 43.86 36.83 62.26 58.65 14.68 17.55 28.15 36.08 41.1 54.93 37.26 50.39 74.57 100.75 111.84 151.13 5.76 8.24 12.23 15.93 18.45 23.82-6.06-.78-13.09.11-17.36 4.91-13.63 13.6-29.54 25.01-47.12 32.92-17.85 8.05-37.31 12.24-56.82 13.23-34.45.93-69.69-7.82-98.11-27.74-8.56-5.98-16.74-12.63-23.87-20.28-58.48-76.85-116.95-153.72-175.43-230.58-5.05-7.38-12.04-13.19-17.39-20.27 5.9 3.66 15.36 3.77 19.43-2.68 17.74-24.47 43.01-44.13 72.43-52.13m-99.65 73.73c1.74 3.35 4.25 6.19 6.43 9.25 50.12 65.49 100.37 130.88 150.49 196.37 8.8 9.57 16.46 20.14 24.75 30.16-3.38.26-6.87.54-9.92 2.15-4.8 2.24-8.2 6.44-11.45 10.48-25.07 30.99-50.13 62-75.22 92.99-13.32 16.24-29.92 30.08-49.17 38.71-23.59 10.56-50.16 14.52-75.8 11.16-22.6-2.7-44.11-12.03-62.27-25.62-23.64-17.41-42.22-42.21-50.07-70.69-6.71-24.73-7.97-51.39-.89-76.19 5.37-19.56 15.88-37.36 29.04-52.67 38.56-47.76 77.14-95.5 115.69-143.26 4.56-6.74 8.89-14.42 8.39-22.84" fill="#1a1a1a"/></svg>